HIERARCHY
ROOT Hips
{
	OFFSET 0.000000 35.082581 0.000000
	CHANNELS 6 Xposition Yposition Zposition Xrotation Yrotation Zrotation 
	JOINT Spine
	{
		OFFSET 0.000000 6.876099 0.125700
		CHANNELS 3 Xrotation Yrotation Zrotation
		JOINT Spine1
		{
			OFFSET 0.000000 5.730043 0.104720
			CHANNELS 3 Xrotation Yrotation Zrotation
			JOINT Spine1_split
			{
				OFFSET 0.000000 5.730043 0.104720
				CHANNELS 3 Xrotation Yrotation Zrotation
				JOINT Spine2
				{
					OFFSET 0.000000 5.730043 0.104720
					CHANNELS 3 Xrotation Yrotation Zrotation
					JOINT Neck
					{
						OFFSET 0.000000 10.314075 0.188496
						CHANNELS 3 Xrotation Yrotation Zrotation
						JOINT Head
						{
							OFFSET 0.000000 7.643700 -2.377400
							CHANNELS 3 Xrotation Yrotation Zrotation
							JOINT HeadTop_End
							{
								OFFSET 0.000000 43.788605 -13.619600
								CHANNELS 3 Xrotation Yrotation Zrotation
								End Site
								{
									OFFSET 0.000000 0.000000 0.000000
								}
							}
						}
					}
					JOINT LeftShoulder
					{
						OFFSET 2.196100 4.412489 0.087492
						CHANNELS 3 Xrotation Yrotation Zrotation
						JOINT LeftShoulder_split
						{
							OFFSET 2.196100 4.412489 0.087492
							CHANNELS 3 Xrotation Yrotation Zrotation
							JOINT LeftArm
							{
								OFFSET 8.771219 -2.981674 -0.026999
								CHANNELS 3 Xrotation Yrotation Zrotation
								JOINT LeftForeArm
								{
									OFFSET 8.512804 0.000000 -0.000000
									CHANNELS 3 Xrotation Yrotation Zrotation
									JOINT LeftHand
									{
										OFFSET 18.484802 0.000000 -0.000000
										CHANNELS 3 Xrotation Yrotation Zrotation
										JOINT LeftHandThumb1
										{
											OFFSET 2.499420 -1.158070 2.653252
											CHANNELS 3 Xrotation Yrotation Zrotation
											JOINT LeftHandThumb2
											{
												OFFSET 2.370079 -1.368366 1.368366
												CHANNELS 3 Xrotation Yrotation Zrotation
												JOINT LeftHandThumb3
												{
													OFFSET 2.676727 -1.545410 1.545409
													CHANNELS 3 Xrotation Yrotation Zrotation
													JOINT LeftHandThumb4
													{
														OFFSET 1.692226 -0.977005 0.977007
														CHANNELS 3 Xrotation Yrotation Zrotation
														End Site
														{
															OFFSET 0.000000 0.000000 0.000000
														}
													}
												}
											}
										}
										JOINT LeftHandIndex1
										{
											OFFSET 7.924831 -0.457527 2.345128
											CHANNELS 3 Xrotation Yrotation Zrotation
											JOINT LeftHandIndex2
											{
												OFFSET 3.643303 0.000000 0.000000
												CHANNELS 3 Xrotation Yrotation Zrotation
												JOINT LeftHandIndex3
												{
													OFFSET 3.810799 0.000000 0.000000
													CHANNELS 3 Xrotation Yrotation Zrotation
													JOINT LeftHandIndex4
													{
														OFFSET 2.403702 0.000000 0.000000
														CHANNELS 3 Xrotation Yrotation Zrotation
														End Site
														{
															OFFSET 0.000000 0.000000 0.000000
														}
													}
												}
											}
										}
										JOINT LeftHandMiddle1
										{
											OFFSET 8.563995 0.000000 -0.000000
											CHANNELS 3 Xrotation Yrotation Zrotation
											JOINT LeftHandMiddle2
											{
												OFFSET 3.861618 0.000000 0.000000
												CHANNELS 3 Xrotation Yrotation Zrotation
												JOINT LeftHandMiddle3
												{
													OFFSET 3.701603 0.000000 0.000000
													CHANNELS 3 Xrotation Yrotation Zrotation
													JOINT LeftHandMiddle4
													{
														OFFSET 2.322544 0.000000 0.000000
														CHANNELS 3 Xrotation Yrotation Zrotation
														End Site
														{
															OFFSET 0.000000 0.000000 0.000000
														}
													}
												}
											}
										}
										JOINT LeftHandRing1
										{
											OFFSET 8.426460 -0.424637 -3.286992
											CHANNELS 3 Xrotation Yrotation Zrotation
											JOINT LeftHandRing2
											{
												OFFSET 3.126408 0.000000 0.000000
												CHANNELS 3 Xrotation Yrotation Zrotation
												JOINT LeftHandRing3
												{
													OFFSET 3.085026 0.000000 0.000000
													CHANNELS 3 Xrotation Yrotation Zrotation
													JOINT LeftHandRing4
													{
														OFFSET 1.644005 0.000000 0.000000
														CHANNELS 3 Xrotation Yrotation Zrotation
														End Site
														{
															OFFSET 0.000000 0.000000 0.000000
														}
													}
												}
											}
										}
									}
								}
							}
						}
					}
					JOINT RightShoulder
					{
						OFFSET -2.196100 4.412496 0.070690
						CHANNELS 3 Xrotation Yrotation Zrotation
						JOINT RightShoulder_split
						{
							OFFSET -2.196100 4.412496 0.070690
							CHANNELS 3 Xrotation Yrotation Zrotation
							JOINT RightArm
							{
								OFFSET -8.771282 -2.981682 -0.094208
								CHANNELS 3 Xrotation Yrotation Zrotation
								JOINT RightForeArm
								{
									OFFSET -8.494598 0.000000 0.000000
									CHANNELS 3 Xrotation Yrotation Zrotation
									JOINT RightHand
									{
										OFFSET -18.483803 0.000000 0.000001
										CHANNELS 3 Xrotation Yrotation Zrotation
										JOINT RightHandThumb1
										{
											OFFSET -2.527351 -1.008072 2.575253
											CHANNELS 3 Xrotation Yrotation Zrotation
											JOINT RightHandThumb2
											{
												OFFSET -2.321518 -1.340328 1.340329
												CHANNELS 3 Xrotation Yrotation Zrotation
												JOINT RightHandThumb3
												{
													OFFSET -2.657753 -1.534454 1.534455
													CHANNELS 3 Xrotation Yrotation Zrotation
													JOINT RightHandThumb4
													{
														OFFSET -1.807510 -1.043568 1.043567
														CHANNELS 3 Xrotation Yrotation Zrotation
														End Site
														{
															OFFSET 0.000000 0.000000 0.000000
														}
													}
												}
											}
										}
										JOINT RightHandIndex1
										{
											OFFSET -8.811420 0.015533 2.887987
											CHANNELS 3 Xrotation Yrotation Zrotation
											JOINT RightHandIndex2
											{
												OFFSET -3.537502 0.000000 0.000000
												CHANNELS 3 Xrotation Yrotation Zrotation
												JOINT RightHandIndex3
												{
													OFFSET -3.356201 0.000000 0.000000
													CHANNELS 3 Xrotation Yrotation Zrotation
													JOINT RightHandIndex4
													{
														OFFSET -1.933098 0.000000 0.000000
														CHANNELS 3 Xrotation Yrotation Zrotation
														End Site
														{
															OFFSET 0.000000 0.000000 0.000000
														}
													}
												}
											}
										}
										JOINT RightHandMiddle1
										{
											OFFSET -8.178135 0.000000 0.000000
											CHANNELS 3 Xrotation Yrotation Zrotation
											JOINT RightHandMiddle2
											{
												OFFSET -3.901302 0.000000 0.000000
												CHANNELS 3 Xrotation Yrotation Zrotation
												JOINT RightHandMiddle3
												{
													OFFSET -3.909599 0.000000 0.000000
													CHANNELS 3 Xrotation Yrotation Zrotation
													JOINT RightHandMiddle4
													{
														OFFSET -2.376003 0.000000 0.000000
														CHANNELS 3 Xrotation Yrotation Zrotation
														End Site
														{
															OFFSET 0.000000 0.000000 0.000000
														}
													}
												}
											}
										}
										JOINT RightHandRing1
										{
											OFFSET -7.559013 0.014137 -2.865403
											CHANNELS 3 Xrotation Yrotation Zrotation
											JOINT RightHandRing2
											{
												OFFSET -3.449306 0.000000 0.000000
												CHANNELS 3 Xrotation Yrotation Zrotation
												JOINT RightHandRing3
												{
													OFFSET -3.362106 0.000000 0.000000
													CHANNELS 3 Xrotation Yrotation Zrotation
													JOINT RightHandRing4
													{
														OFFSET -2.076401 0.000000 0.000000
														CHANNELS 3 Xrotation Yrotation Zrotation
														End Site
														{
															OFFSET 0.000000 0.000000 0.000000
														}
													}
												}
											}
										}
									}
								}
							}
						}
					}
				}
			}
		}
	}
	JOINT LeftUpLeg
	{
		OFFSET 10.205400 -3.823500 0.155100
		CHANNELS 3 Xrotation Yrotation Zrotation
		JOINT LeftLeg
		{
			OFFSET 0.708757 -12.982077 0.567790
			CHANNELS 3 Xrotation Yrotation Zrotation
			JOINT LeftFoot
			{
				OFFSET -0.708756 -10.717838 -2.184338
				CHANNELS 3 Xrotation Yrotation Zrotation
				JOINT LeftToeBase
				{
					OFFSET 0.108149 -7.191104 7.560241
					CHANNELS 3 Xrotation Yrotation Zrotation
					JOINT LeftToe_End
					{
						OFFSET 0.070230 0.081724 4.490308
						CHANNELS 3 Xrotation Yrotation Zrotation
						End Site
						{
							OFFSET 0.000000 0.000000 0.000000
						}
					}
				}
			}
		}
	}
	JOINT RightUpLeg
	{
		OFFSET -10.205400 -3.823500 0.005500
		CHANNELS 3 Xrotation Yrotation Zrotation
		JOINT RightLeg
		{
			OFFSET -0.708756 -12.982134 0.610632
			CHANNELS 3 Xrotation Yrotation Zrotation
			JOINT RightFoot
			{
				OFFSET 0.708754 -10.717769 -1.945823
				CHANNELS 3 Xrotation Yrotation Zrotation
				JOINT RightToeBase
				{
					OFFSET -0.108140 -7.191069 7.372968
					CHANNELS 3 Xrotation Yrotation Zrotation
					JOINT RightToe_End
					{
						OFFSET -0.070227 0.081735 4.479403
						CHANNELS 3 Xrotation Yrotation Zrotation
						End Site
						{
							OFFSET 0.000000 0.000000 0.000000
						}
					}
				}
			}
		}
	}
}
MOTION
Frames: 4
Frame Time: 0.016667
-0.301776 26.564644 0.292927 11.655834 -49.360712 11.305336 10.974594 2.698968 -2.069925 6.100715 5.566502 -4.284672 0.000000 0.000000 0.000000 -5.786927 6.328165 -3.046188 2.318697 9.363315 -0.265339 -4.146672 23.161952 -3.523376 -0.000000 -0.000000 0.000000 -1.875349 -16.181707 -2.870478 0.000000 0.000000 0.000000 -10.644668 2.164718 -45.510602 -22.862395 -25.786280 -15.871722 2.491047 -2.511848 6.860499 18.457951 -9.513817 13.216589 -1.150195 11.255334 -8.400819 5.706552 8.483086 -0.820725 -0.000004 -0.000000 0.000003 -1.232800 -5.771922 -0.192328 0.133958 -0.197650 -4.602108 0.055739 -0.448183 -7.568222 -0.000003 -0.000000 0.000001 1.884761 4.663355 -4.597396 0.476672 -1.009826 -12.986437 0.628521 -1.346596 -16.554036 -0.000002 -0.000000 0.000000 3.024625 7.938939 -14.103470 -0.708006 -0.566242 -18.895761 -0.726408 -0.705035 -22.058427 0.000001 0.000000 0.000000 -5.074581 24.343704 1.482598 0.000000 0.000000 0.000000 6.642397 -34.733691 57.610508 -21.031971 44.833853 19.961655 -0.087301 35.608488 7.474344 55.149550 18.649555 -29.698270 -0.442536 -14.180570 7.313140 21.666981 -29.244486 9.142353 -0.000000 0.000002 0.000001 5.673398 7.585018 36.844161 1.050483 3.824524 68.900264 0.499570 3.026051 62.196447 -0.000001 0.000000 -0.000001 -0.125701 1.886091 45.000763 -1.168975 3.204674 68.417650 -0.936404 1.813624 41.107575 0.000000 0.000001 -0.000001 -5.311977 1.216646 58.508807 -0.745219 1.667586 48.011302 -0.816466 1.840622 53.666548 -0.000001 0.000000 -0.000001 -69.352716 16.208193 51.972221 53.929733 -25.144891 2.808945 2.213411 2.700479 -19.144305 -0.941353 -6.111090 0.982353 -0.000000 0.000001 -0.000000 -27.355024 4.523099 -38.849160 61.087723 11.597567 -5.601572 -37.636528 -11.607117 32.642048 0.528350 2.970080 1.471423 0.000000 -0.000004 -0.000000 
-0.403653 26.532116 0.440747 17.316440 -51.129632 16.034716 6.601689 3.119055 -1.450622 4.905261 6.087649 -4.052460 0.000000 0.000000 0.000000 -6.993467 6.770113 -2.740918 -0.991444 3.774193 0.062745 -2.765976 16.503474 -2.144350 0.000000 -0.000001 0.000000 -2.019452 -12.678709 -1.080089 0.000000 0.000000 0.000000 -6.222607 2.408186 -48.336074 -21.610075 -26.352753 -14.989774 2.965867 -1.783790 8.412972 18.064691 -9.416811 14.872093 -0.773614 11.739603 -8.473102 5.789428 8.646699 -0.813668 -0.000000 0.000001 -0.000006 -1.184297 -5.275863 -1.333407 0.131693 -0.224501 -5.199128 0.049344 -0.418685 -6.975703 0.000000 0.000001 -0.000000 1.542729 3.201553 -5.955566 0.477914 -1.005695 -12.916745 0.632423 -1.336353 -16.388375 -0.000002 -0.000000 -0.000000 2.085934 6.252227 -15.478206 -0.700621 -0.534755 -18.124349 -0.709579 -0.665861 -21.171247 0.000002 0.000001 0.000000 -5.292516 23.824665 2.533286 0.000000 0.000000 0.000000 6.218723 -35.596118 55.188109 -22.397626 43.628229 20.943848 3.828301 34.139205 9.201663 55.149550 18.649553 -29.698267 -0.442539 -14.180573 7.313142 21.666981 -29.244486 9.142348 -0.000003 -0.000002 -0.000000 5.673397 7.585019 36.844161 1.050484 3.824525 68.900257 0.499572 3.026046 62.196440 0.000000 -0.000000 0.000000 -0.125701 1.886093 45.000763 -1.168975 3.204668 68.417650 -0.936397 1.813625 41.107572 -0.000001 0.000000 -0.000000 -5.311976 1.216645 58.508807 -0.745221 1.667588 48.011302 -0.816464 1.840624 53.666548 -0.000002 0.000000 0.000001 -69.660888 15.861741 52.472703 54.727174 -24.828651 2.807650 0.024168 5.313547 -20.701077 -0.941352 -6.111091 0.982353 -0.000000 -0.000001 -0.000000 -32.622923 7.133291 -38.226089 61.443938 11.650827 -5.673571 -36.171063 -10.496594 33.030262 0.528351 2.970083 1.471421 0.000000 -0.000001 -0.000000 
-0.588208 26.443295 0.659407 23.026900 -51.122590 21.250190 1.927825 3.129997 -0.651241 3.783565 5.915591 -3.917739 0.000000 0.000000 0.000000 -8.078009 6.563220 -2.613886 -5.256410 -4.314887 1.768452 -0.964760 7.189379 -0.581164 0.000001 0.000002 -0.000000 -2.338702 -9.267078 0.477322 0.000000 0.000000 0.000000 0.012342 1.464312 -49.562236 -21.267396 -30.655716 -14.789839 4.369188 -3.947317 9.995075 17.604334 -9.261296 16.773927 -0.387783 12.245197 -8.536491 5.865865 8.783610 -0.820997 -0.000000 0.000001 -0.000003 -1.103403 -4.719078 -2.651492 0.129754 -0.245649 -5.669168 0.055147 -0.379041 -6.139141 -0.000002 -0.000001 0.000004 1.185351 1.599520 -7.313237 0.484435 -0.983397 -12.540482 0.638522 -1.307887 -15.877992 0.000004 0.000004 -0.000001 1.012824 4.393967 -16.937179 -0.690364 -0.487682 -16.975141 -0.687489 -0.610037 -19.919063 0.000000 -0.000000 -0.000000 -5.306063 22.788515 3.827915 0.000000 0.000000 0.000000 7.662524 -36.585683 53.035510 -27.334596 45.566497 26.031891 8.948061 30.429306 10.709141 55.149550 18.649551 -29.698270 -0.442538 -14.180565 7.313140 21.666982 -29.244486 9.142353 -0.000000 -0.000002 0.000006 5.673396 7.585011 36.844158 1.050482 3.824531 68.900264 0.499575 3.026053 62.196447 -0.000002 -0.000001 0.000004 -0.125699 1.886086 45.000759 -1.168975 3.204672 68.417650 -0.936399 1.813626 41.107572 0.000000 0.000000 -0.000001 -5.311978 1.216642 58.508801 -0.745223 1.667583 48.011302 -0.816466 1.840624 53.666548 0.000000 -0.000001 -0.000001 -70.781879 16.071923 51.799284 55.121232 -24.575717 2.789503 -1.489219 7.240611 -21.569871 -0.941351 -6.111092 0.982353 0.000000 0.000001 -0.000000 -36.302729 9.289374 -38.409975 61.841414 11.454972 -5.737283 -35.875108 -10.687125 33.663065 0.528344 2.970081 1.471422 0.000000 -0.000002 -0.000000 
-0.825528 26.343372 0.900949 27.351510 -49.705459 25.535618 -1.831877 2.686333 0.037096 3.102666 5.088899 -3.978472 0.000000 0.000000 0.000000 -8.666749 5.787714 -2.761521 -8.158454 -13.179530 6.213845 0.797487 -2.094668 0.411621 -0.000000 -0.000004 -0.000000 -2.777912 -7.561330 3.202646 0.000000 0.000000 0.000000 6.336158 0.679727 -51.194293 -20.920405 -35.100902 -14.588097 5.409409 -8.008544 10.884753 17.109779 -9.079850 18.724424 0.002448 12.754344 -8.604158 5.938785 8.914617 -0.827739 -0.000003 -0.000004 0.000001 -0.983835 -4.156243 -4.002705 0.127631 -0.266922 -6.142127 0.060476 -0.336385 -5.241554 0.000002 0.000001 -0.000001 0.803370 -0.034192 -8.704963 0.492088 -0.956442 -12.087581 0.645721 -1.274400 -15.281411 0.000001 -0.000001 -0.000000 -0.132081 2.515807 -18.482077 -0.680291 -0.436506 -15.731497 -0.665391 -0.549433 -18.575693 0.000001 -0.000001 -0.000001 -5.506157 20.977715 6.822242 0.000000 0.000000 0.000000 8.426900 -38.300825 48.596403 -35.680082 50.798941 35.841220 12.703971 25.022420 12.320515 55.149553 18.649553 -29.698274 -0.442536 -14.180573 7.313141 21.666979 -29.244483 9.142352 -0.000003 0.000001 0.000002 5.673398 7.585016 36.844158 1.050484 3.824527 68.900264 0.499570 3.026047 62.196447 0.000001 0.000001 -0.000001 -0.125702 1.886092 45.000763 -1.168974 3.204677 68.417650 -0.936407 1.813624 41.107572 0.000000 -0.000001 0.000000 -5.311978 1.216646 58.508807 -0.745222 1.667586 48.011302 -0.816471 1.840620 53.666541 -0.000000 0.000000 0.000001 -72.221266 16.801832 50.267498 54.858136 -24.406363 2.746213 -2.178732 8.280593 -21.843227 -0.941349 -6.111097 0.982353 0.000001 -0.000002 0.000000 -38.039075 10.801450 -39.427561 62.333625 11.151069 -5.757127 -36.667662 -11.908323 34.296531 0.528346 2.970086 1.471424 0.000000 0.000003 -0.000000 
